<svg xmlns="http://www.w3.org/2000/svg" width="207.614" height="86.009" viewBox="0 0 207.614 86.009"><defs><style>.a{fill:#72bdb9;}</style></defs><path class="a" d="M-14262.359,302.007a107.248,107.248,0,0,1-29.06-3.983,101.92,101.92,0,0,1-26.251-11.532,93.964,93.964,0,0,1-37.168-43.193,93.044,93.044,0,0,1-6.968-27.3h207.614a101.4,101.4,0,0,1-7.98,23.755,106.375,106.375,0,0,1-13.726,21.5,109.838,109.838,0,0,1-18.971,18.128,113.464,113.464,0,0,1-23.717,13.628,113.906,113.906,0,0,1-21.84,6.785A110.749,110.749,0,0,1-14262.359,302.007Z" transform="translate(14361.806 -215.999)"/></svg>