<svg id="icon_twitter" xmlns="http://www.w3.org/2000/svg" width="40.623" height="33" viewBox="0 0 40.623 33">
  <path id="twitter" d="M40.523,67.9a16.434,16.434,0,0,1-4.783,1.309A8.38,8.38,0,0,0,39.4,64.6a16.757,16.757,0,0,1-5.291,2.023,8.342,8.342,0,0,0-14.2,7.6A23.649,23.649,0,0,1,2.74,65.515,8.343,8.343,0,0,0,5.318,76.637,8.341,8.341,0,0,1,1.542,75.6v.1a8.333,8.333,0,0,0,6.687,8.171,8.347,8.347,0,0,1-2.2.294,8.569,8.569,0,0,1-1.571-.151,8.359,8.359,0,0,0,7.782,5.791,16.712,16.712,0,0,1-10.352,3.57A16.568,16.568,0,0,1-.1,93.256,23.569,23.569,0,0,0,12.68,97C28.006,97,36.39,84.3,36.39,73.289c0-.365-.008-.722-.024-1.079A16.773,16.773,0,0,0,40.523,67.9Z" transform="translate(0.1 -64)" fill="#6b7780"/>
</svg>
