<svg id="icon_line" xmlns="http://www.w3.org/2000/svg" width="34" height="33" viewBox="0 0 34 33">
  <path id="line" d="M27.434,37.819a.91.91,0,0,1,0,1.821H24.948v1.624h2.486a.909.909,0,0,1,0,1.818h-3.38a.9.9,0,0,1-.888-.908V35.285a.9.9,0,0,1,.892-.91h3.38a.91.91,0,0,1,0,1.819H24.948v1.624Zm-5.461,4.354a.891.891,0,0,1-.894.905.87.87,0,0,1-.723-.361L16.9,37.929v4.245a.891.891,0,1,1-1.781,0V35.285a.9.9,0,0,1,.609-.859A.811.811,0,0,1,16,34.379a.911.911,0,0,1,.7.367l3.488,4.808V35.285a.893.893,0,1,1,1.785,0v6.888Zm-8.133,0a.891.891,0,1,1-1.782,0V35.285a.891.891,0,1,1,1.782,0Zm-3.493.908H6.966a.906.906,0,0,1-.893-.908V35.285a.893.893,0,1,1,1.785,0v5.979h2.488a.909.909,0,0,1,0,1.818ZM34,38.47c0-7.755-7.629-14.065-17-14.065S0,30.716,0,38.47c0,6.946,6.049,12.766,14.216,13.872.554.118,1.308.372,1.5.852a3.592,3.592,0,0,1,.054,1.559l-.232,1.473c-.064.435-.34,1.712,1.486.931s9.8-5.888,13.368-10.07A12.57,12.57,0,0,0,34,38.47Z" transform="translate(0 -24.405)" fill="#6b7780"/>
</svg>
