<svg id="圖層_1" data-name="圖層 1" xmlns="http://www.w3.org/2000/svg" viewBox="0 0 125 42"><defs><style>.cls-1{fill:none;}.cls-2,.cls-5{fill:#bf4c16;}.cls-3{fill:#eb9500;}.cls-4{fill:#8d6f3c;}.cls-5{fill-rule:evenodd;}</style></defs><rect class="cls-1" x="0.02" width="124.95" height="42"/><path class="cls-2" d="M18.29,21.18V12.75h1.05v8.43Z"/><path class="cls-2" d="M23.71,21.31a2.54,2.54,0,0,1-2-.83,3.16,3.16,0,0,1-.74-2.2,3.17,3.17,0,0,1,.74-2.21,2.9,2.9,0,0,1,4,0,3.1,3.1,0,0,1,.74,2.2,3.16,3.16,0,0,1-.74,2.23A2.66,2.66,0,0,1,23.71,21.31Zm0-.79c1.11,0,1.67-.75,1.67-2.25S24.85,16,23.75,16s-1.64.75-1.64,2.24S22.65,20.52,23.73,20.52Z"/><path class="cls-2" d="M28.16,21.24V12.75h1.05v3.72a2.07,2.07,0,0,1,1.94-1.22,2,2,0,0,1,1.64.77,3.28,3.28,0,0,1,.6,2.08,3.75,3.75,0,0,1-.68,2.33,2.17,2.17,0,0,1-1.79.88,2.14,2.14,0,0,1-1.71-.79l-.13.72Zm1.05-1.45a2.35,2.35,0,0,0,1.55.73c1,0,1.51-.77,1.51-2.31,0-1.36-.45-2-1.34-2a2.34,2.34,0,0,0-1.72,1Z"/><path class="cls-2" d="M38,20.44a2.75,2.75,0,0,1-1.82.87A1.65,1.65,0,0,1,35,20.86a1.5,1.5,0,0,1-.48-1.14,1.64,1.64,0,0,1,.8-1.46,4.25,4.25,0,0,1,2.29-.51h.25v-.7a.91.91,0,0,0-1-1,3.83,3.83,0,0,0-1.8.52v-.87a5.28,5.28,0,0,1,2-.44,2.05,2.05,0,0,1,1.44.44,1.83,1.83,0,0,1,.46,1.36v2.63c0,.6.18.9.55.9l.2,0,.08.58a1.86,1.86,0,0,1-.79.17C38.47,21.31,38.16,21,38,20.44Zm-.15-.57v-1.5h-.36a2.6,2.6,0,0,0-1.39.33,1,1,0,0,0-.54.86.87.87,0,0,0,.27.64.91.91,0,0,0,.65.26A2.19,2.19,0,0,0,37.87,19.87Z"/><path class="cls-2" d="M41.07,21.18V12.75h1v8.43Z"/><path class="cls-3" d="M44.19,21.18v-7.9H48.6v.84H45.31v2.53h2.76v.83H45.31v2.86h3.52v.84Z"/><path class="cls-3" d="M49.56,21.18l2.21-3-2.14-2.8h1.25l1.69,2.23,1.53-2.23h1l-2,2.94,2.18,2.86H54.05l-1.74-2.3-1.69,2.3Z"/><path class="cls-2" d="M59.11,21.31a2.5,2.5,0,0,1-2-.87,3.15,3.15,0,0,1-.77-2.19A3,3,0,0,1,57.15,16a2.86,2.86,0,0,1,2.14-.79,7.24,7.24,0,0,1,1.51.19v.88a5.5,5.5,0,0,0-1.45-.26,1.56,1.56,0,0,0-1.29.61,2.46,2.46,0,0,0-.49,1.61,2.41,2.41,0,0,0,.5,1.58,1.63,1.63,0,0,0,1.31.6,3.38,3.38,0,0,0,1.49-.37V21A6.1,6.1,0,0,1,59.11,21.31Z"/><path class="cls-2" d="M62.44,21.18V12.75h1.05v3.72a2.45,2.45,0,0,1,2-1.22,1.57,1.57,0,0,1,1.2.48A1.8,1.8,0,0,1,67.18,17v4.17H66.13V17.36a1.73,1.73,0,0,0-.19-.92.71.71,0,0,0-.63-.28,2.32,2.32,0,0,0-1.82,1.27v3.75Z"/><path class="cls-2" d="M72.21,20.44a2.77,2.77,0,0,1-1.82.87,1.69,1.69,0,0,1-1.2-.45,1.52,1.52,0,0,1-.47-1.14,1.64,1.64,0,0,1,.8-1.46,4.23,4.23,0,0,1,2.28-.51h.25v-.7a.9.9,0,0,0-1-1,3.77,3.77,0,0,0-1.8.52v-.87a5.28,5.28,0,0,1,2-.44,2,2,0,0,1,1.43.44,1.79,1.79,0,0,1,.46,1.36v2.63c0,.6.19.9.56.9l.2,0,.08.58a1.9,1.9,0,0,1-.79.17C72.66,21.31,72.34,21,72.21,20.44Zm-.16-.57v-1.5H71.7a2.66,2.66,0,0,0-1.4.33,1,1,0,0,0-.53.86.87.87,0,0,0,.27.64.89.89,0,0,0,.65.26A2.15,2.15,0,0,0,72.05,19.87Z"/><path class="cls-2" d="M75.25,21.18v-5.8h1v1.09a2.45,2.45,0,0,1,2-1.22,1.57,1.57,0,0,1,1.2.48A1.8,1.8,0,0,1,80,17v4.17h-1V17.36a1.64,1.64,0,0,0-.19-.92.69.69,0,0,0-.63-.28,2.32,2.32,0,0,0-1.82,1.27v3.75Z"/><path class="cls-2" d="M82.06,23.1l.12-.91a4.16,4.16,0,0,0,1.8.43c1.18,0,1.77-.63,1.77-1.88v-.91A2,2,0,0,1,83.84,21a2,2,0,0,1-1.65-.76,3.12,3.12,0,0,1-.61-2,3.25,3.25,0,0,1,.69-2.15,2.25,2.25,0,0,1,1.81-.84,2.17,2.17,0,0,1,1.67.79v-.66h1.06V19.6a10.82,10.82,0,0,1-.14,2,2.25,2.25,0,0,1-.53,1.07,2.82,2.82,0,0,1-2.14.73A5.93,5.93,0,0,1,82.06,23.1Zm3.69-3.93V16.76A2.06,2.06,0,0,0,84.24,16a1.31,1.31,0,0,0-1.13.59,2.64,2.64,0,0,0-.41,1.59c0,1.27.44,1.9,1.33,1.9A2.26,2.26,0,0,0,85.75,19.17Z"/><path class="cls-2" d="M93.09,21a6.52,6.52,0,0,1-1.81.32,2.75,2.75,0,0,1-2.09-.85,3.11,3.11,0,0,1-.8-2.21,3.2,3.2,0,0,1,.71-2.16,2.27,2.27,0,0,1,1.82-.84,1.91,1.91,0,0,1,1.62.75,3.35,3.35,0,0,1,.58,2.12v.32H89.46c.15,1.38.83,2.07,2,2.07a4.94,4.94,0,0,0,1.61-.35Zm-3.58-3.34h2.55c0-1.07-.4-1.61-1.2-1.61S89.6,16.58,89.51,17.65Z"/><path class="cls-2" d="M96.45,21.37a8,8,0,0,1-2-.34V19.92a5.57,5.57,0,0,0,2.2.62,1.57,1.57,0,0,0,1.06-.35,1.14,1.14,0,0,0,.4-.91,1.18,1.18,0,0,0-.26-.79,3.59,3.59,0,0,0-1-.73l-.55-.31a5.33,5.33,0,0,1-1.42-1.09,1.79,1.79,0,0,1-.41-1.19,1.94,1.94,0,0,1,.66-1.5,2.44,2.44,0,0,1,1.68-.59,6.52,6.52,0,0,1,1.93.31v1a5.64,5.64,0,0,0-1.86-.49,1.44,1.44,0,0,0-1,.31,1,1,0,0,0-.1,1.48,4.34,4.34,0,0,0,1,.72l.57.32a5.24,5.24,0,0,1,1.43,1.1,2,2,0,0,1,.4,1.25,2,2,0,0,1-.76,1.65A3.11,3.11,0,0,1,96.45,21.37Z"/><path class="cls-2" d="M102.55,21.31a1.62,1.62,0,0,1-1.24-.46,1.74,1.74,0,0,1-.45-1.27V16.17h-.73v-.79h.73V14.33l1-.1v1.15h1.51v.79h-1.51v3.21c0,.76.33,1.14,1,1.14a2.12,2.12,0,0,0,.51-.07v.73A3.75,3.75,0,0,1,102.55,21.31Z"/><path class="cls-2" d="M108.52,21.18V20.09a2.42,2.42,0,0,1-2,1.22,1.55,1.55,0,0,1-1.2-.48,1.81,1.81,0,0,1-.45-1.29V15.38h1V19.2a1.68,1.68,0,0,0,.19.93.7.7,0,0,0,.63.27,2.32,2.32,0,0,0,1.81-1.26V15.38h1v5.8Z"/><path class="cls-2" d="M115.4,21.18V20.09a2.07,2.07,0,0,1-1.93,1.22,2,2,0,0,1-1.65-.76,3.31,3.31,0,0,1-.6-2.09,3.75,3.75,0,0,1,.68-2.33,2.25,2.25,0,0,1,3.5-.09V12.75h1.06v8.43Zm0-4.42a2.4,2.4,0,0,0-1.55-.72c-1,0-1.51.77-1.51,2.31q0,2,1.35,2a2.34,2.34,0,0,0,1.71-1Z"/><path class="cls-2" d="M118.89,23.28l.94-2.1-2.24-5.8h1.14l1.66,4.37,1.77-4.37h1L120,23.28Z"/><path class="cls-4" d="M47.43,25.56H45.61v-.75H49a8.41,8.41,0,0,0,3.83,2.7l-.61.86L51.39,28v.5H48.85v1.4h2.5v.77h-2.5v1.55h3.61V33H44.32v-.77h3.57V30.66h-2.5v-.77h2.5v-1.4h-2.5v-.44l-.79.38-.54-.89a11.43,11.43,0,0,0,2.3-1.13A4.82,4.82,0,0,0,47.43,25.56ZM46,27.71h4.89c-.35-.21-.65-.41-.92-.61a6.58,6.58,0,0,1-1.57-1.54,5.13,5.13,0,0,1-.95,1.11A7.26,7.26,0,0,1,46,27.71Z"/><path class="cls-4" d="M53.6,25.17h3.17V26H55.54V27.9h1v.85h-1v2.1c.42-.15.82-.32,1.19-.48v.86a9.59,9.59,0,0,0,1.38-1.4l.54.65a10.55,10.55,0,0,1-2,2l-.63-.71c.19-.13.36-.27.53-.41a21.31,21.31,0,0,1-2.9,1.09l-.27-.92,1.27-.38v-2.4h-1V27.9h1V26H53.6Zm2.91,1h2.27V24.64h.85V26.2H62V27H59.63v5.39a.91.91,0,0,1-.22.71,1,1,0,0,1-.73.22h-1l-.2-.93a7.55,7.55,0,0,0,1,.07c.24,0,.36-.07.36-.22V27H56.51Zm.73,1.09a19.18,19.18,0,0,1,1.3,1.61l-.81.56a14.93,14.93,0,0,0-1.18-1.73Zm3.28,2.54a24,24,0,0,1,1.67,2.09l-.81.56a20.08,20.08,0,0,0-1.55-2.21Zm.68-2.5.69.33a7.18,7.18,0,0,1-1.28,1.77l-.74-.54A8.82,8.82,0,0,0,61.2,27.33Zm-.56-2.73a6.76,6.76,0,0,1,1,.9l-.61.61a5.89,5.89,0,0,0-1-1Z"/><path class="cls-4" d="M66.64,24.64a12.64,12.64,0,0,1,1.44,1.29l-.5.35h3.93v.84H70.14A10.31,10.31,0,0,1,68.66,30a6.87,6.87,0,0,1-.63.76,17.62,17.62,0,0,0,3.52,1.69l-.52.91a15.23,15.23,0,0,1-3.71-1.95c-.17.14-.35.27-.52.39a13.81,13.81,0,0,1-3.34,1.49l-.54-.89a11.34,11.34,0,0,0,3.27-1.27l.45-.29a8.93,8.93,0,0,1-2.09-3.69H63v-.84h4a14.5,14.5,0,0,0-1.12-1.18Zm-1.22,2.48a7.24,7.24,0,0,0,1.91,3.08,7,7,0,0,0,.77-.91,7.45,7.45,0,0,0,1.07-2.17Z"/><path class="cls-4" d="M74.48,24.6l.86.4a14.74,14.74,0,0,1-.79,1.93v6.33h-.92V28.34c-.31.41-.64.82-1,1.23l-.34-1.14a12,12,0,0,0,1.2-1.63A9.41,9.41,0,0,0,74.48,24.6Zm4.86,7.74a.51.51,0,0,0,.45-.23A7.41,7.41,0,0,0,80,29.94l.89.29a6.37,6.37,0,0,1-.45,2.57,1.1,1.1,0,0,1-1,.38H76.84a.93.93,0,0,1-.67-.23.9.9,0,0,1-.26-.67V24.67h.92V28.1a14.32,14.32,0,0,0,3.35-2.21l.58.81a15.17,15.17,0,0,1-3.93,2.37V32c0,.22.13.33.37.33Z"/><path class="cls-4" d="M87.65,28.4l.84.36a11.41,11.41,0,0,1-1.58,2.16l0,0a11.19,11.19,0,0,0,3.52,1.43l-.6.92a12,12,0,0,1-3.68-1.68l0,0a11.55,11.55,0,0,1-3.72,1.72l-.57-.85A12.16,12.16,0,0,0,85.4,31a9.06,9.06,0,0,1-1.62-2l.85-.5a7.49,7.49,0,0,0,1.53,1.88A9.09,9.09,0,0,0,87.65,28.4Zm-1.38-3.69a8.49,8.49,0,0,1,.48,1H90.3v.81H81.9v-.81h3.82a6.9,6.9,0,0,0-.5-.84ZM84.6,26.59l.76.37a11.74,11.74,0,0,1-2.56,2.61L82,29A13.52,13.52,0,0,0,84.6,26.59Zm2.94,0a23.14,23.14,0,0,1,2.91,2.51l-.73.73a17.13,17.13,0,0,0-2.85-2.6Z"/><path class="cls-4" d="M91.67,27a8.21,8.21,0,0,1,1.65.91l-.56.85a7.55,7.55,0,0,0-1.58-1Zm.94,2.24.75.56A20.28,20.28,0,0,1,92,33.26l-.7-.78A17.43,17.43,0,0,0,92.61,29.24ZM92,24.75a8.53,8.53,0,0,1,1.51.76l-.57.86a6.2,6.2,0,0,0-1.42-.89ZM94.26,29h.85a8.53,8.53,0,0,1-.42,2.73,3.66,3.66,0,0,1-1.26,1.59l-.59-.77a3,3,0,0,0,1.07-1.21A6.86,6.86,0,0,0,94.26,29ZM96.4,24.6a5,5,0,0,1,.73.94h2.75v.77H96.27a5.84,5.84,0,0,1-.88,1.48c1.15,0,2.11-.1,2.87-.2l-.48-.65.59-.57a13.44,13.44,0,0,1,1.33,1.9l-.65.64c-.1-.21-.22-.42-.35-.64-1.1.16-2.71.29-4.84.38l-.24-.84h.72a5.86,5.86,0,0,0,.9-1.5H93.58v-.77h2.61c-.17-.2-.38-.41-.62-.64ZM95.84,29h.85v4.2h-.85Zm2.87,3.43c.24,0,.37-.1.37-.3v-1.5l.8.34a3.82,3.82,0,0,1-.28,1.91,1.1,1.1,0,0,1-.9.29,1.54,1.54,0,0,1-.86-.2.62.62,0,0,1-.26-.55V29h.84v3.21C98.42,32.33,98.52,32.4,98.71,32.41Z"/><path class="cls-4" d="M100.73,26.39h1V24.64h.81v1.75h.73v.77h-.73v.51c.35.42.7.87,1,1.37l-.14.22h.76c0-.21,0-.42,0-.63l-.6.06-.15-.66.4,0a9.29,9.29,0,0,0,.63-1l-1,.18-.14-.62.35,0a6.39,6.39,0,0,0,.66-1.77l.68.09a6,6,0,0,1-.62,1.58l.37-.07c.12-.25.24-.5.34-.75l.65.24A12.1,12.1,0,0,1,104.55,28l.63-.05c-.05-.17-.09-.34-.14-.51l.49-.14a9.45,9.45,0,0,1,.46,1.4l-.58.22-.09-.39-.4.05c0,.27,0,.51,0,.73h1.24a39.26,39.26,0,0,1-.29-4.66h.73c.07,2.2.15,3.76.27,4.66h.88a4.28,4.28,0,0,0-.24-.56c-.16,0-.32.05-.49.06l-.19-.66h.39a11.28,11.28,0,0,0,.64-1.09l-1,.17-.14-.62.32,0a7.74,7.74,0,0,0,.58-1.78l.68.09a6.7,6.7,0,0,1-.54,1.6l.39-.06c.09-.21.19-.42.28-.64l.64.25a11.41,11.41,0,0,1-1.12,2.06l.6-.12-.14-.47.5-.13a11.5,11.5,0,0,1,.46,1.36l-.59.22c0-.15-.06-.28-.09-.41l-.46.1q.12.3.24.66h.86V30H107a8.38,8.38,0,0,0,.3,1.07,7.17,7.17,0,0,0,.62-.83l.64.33a6.51,6.51,0,0,1-.9,1.23c.29.47.53.71.73.71s.09,0,.11-.1a6.13,6.13,0,0,0,.13-1.21l.74.43A4.36,4.36,0,0,1,109,33a.64.64,0,0,1-.57.28c-.39,0-.82-.34-1.28-1a0,0,0,0,1,0,0,5.87,5.87,0,0,1-1.72.92L105,32.5a6.15,6.15,0,0,0,1.7-.88l.08-.07a8.27,8.27,0,0,1-.51-1.59h-1.41q0,.18,0,.33a6.75,6.75,0,0,1,1.24,1l-.44.68a8.21,8.21,0,0,0-.94-.87,4.13,4.13,0,0,1-.45,1.16,4.75,4.75,0,0,1-.85,1l-.56-.71a4.54,4.54,0,0,0,.86-1,4.27,4.27,0,0,0,.39-1.33l0-.22h-.92v-.43l-.14.23c-.22-.43-.4-.79-.56-1.07v4.57h-.81v-4a8.47,8.47,0,0,1-.74,1.57l-.36-.92a11.32,11.32,0,0,0,1.1-2.51v-.27h-1Z"/><path class="cls-4" d="M110.12,26.39h1V24.6H112v1.79h.85v.77H112v.28a15.29,15.29,0,0,1,1,1.31l-.5.75-.46-.95v4.71h-.81V29a8.27,8.27,0,0,1-.75,1.61l-.39-1a10.07,10.07,0,0,0,1.09-2.41h-1Zm2.8-1.09h1.18v-.7h.81v.7h1.59v-.7h.81v.7h1.32V26h-1.32v.43h1V27h-1v.54h1.4v.66h-2.6v.44h2.12v2.27h.51v.7h-.51v.78A.86.86,0,0,1,118,33a.74.74,0,0,1-.55.19h-1.13l-.17-.74,1,0c.18,0,.28-.12.28-.33v-.56h-3.36v1.64h-.81V31.62h-.77v-.7h.77V28.65h2v-.44h-2.41v-.66h1.25V27h-.88v-.62h.88V26h-1.18Zm1.14,4.48h1.2v-.46h-1.2Zm0,1.14h1.2V30.4h-1.2Zm2.44-4.53V26h-1.59v.43Zm-1.59,1.16h1.59V27h-1.59Zm1.2,1.77v.46h1.31v-.46Zm0,1.6h1.31V30.4h-1.31Z"/><path class="cls-5" d="M7.87,8.71H7.74s0,0-.06,0H7.11L7.06,9h-.3l0,0h0v0H6.45l0,0h0v0h0s0,0,0,0H6.17s0,0,0,0h0s0,0-.06.05H5.92l0,0h0v0h0a0,0,0,0,0,0,0h0v0H5.76s-.06,0-.08,0l0,0H5.6v0h0l0,0h0l0,0h0l0,0h0l0,0H5.35s0,0,0,0h0l0,0h0s0,0,0,0h0l0,0h0s0,0-.06,0h0l0,0h0v0s0,0,0,0h0l0,0,0,0H5l0,0H4.8l0,0h0l0,0h0s0,0,0,0,0,0,0,0h0l0,0h0l0,0h0s0,0,0,0h0v0h0s0,0,0,0h0v0h0l0,0h0l0,0h0l0,0h0v0h0a.07.07,0,0,0,0,.05h0v0h0v0h0v0H4.14v0h0s0,0,0,0h0v0H4s0,0,0,0H4v0H4l0,0H4v0H3.9l0,.05,0,0h0v0h0s0,0,0,0h0l0,0h0s0,0,0,.05h0l0,0h0v0h0v0h0l0,0h0l0,0s0,0,0,0h0l0,0h0v0H3.34l0,0h0v0H3.22v0h0a0,0,0,0,1,0,0h0l0,0h0v0h0v0h0s0,0,0,0h0v0h0v0H3v0H3v0H3l0,0H2.86v0h0v0h0v0h0v0h0l0,0h0l0,0h0v0h0v0h0v0h0v0h0v0h0v0h0v0h0v0h0v0h0v0h0l0,0v0a.07.07,0,0,0,0,.05h0v0h0v0h0v0h0v0h0v0h0v0h0v0h0v0h0v0h0l0,0h0l0,0h0v0h0v0h0v0h0v0h0v0h0v0h0v0h0v0h0v0h0v0h0v0h0v0h0v0h0v0h0V15h0v0h0v0h0v0s0,.07,0,.1v0h0v0h0v0h0v0h0v0h0v0H2v0H2v0H2v0H2v0H2v0H2v0H2v0H2v0H2v0H1.93s0,0,0,0h0l0,0h0V17h0a.11.11,0,0,0,0,.06h0s0,0,0,0H2l0,.05H2v0H2v0H2v0H2v0H2v0H2v0h0v0h0v0h0v.05h0v.05h0v0h0v0h0v0h0v0h0v0h0v0h0v.05h0v0h0v0h0v0h0v0h0v0h0s0,0,0,0h0v0h0v0h0v0h0v0h0v0h0v0h0v0h0v0s0,.08,0,.11v0h0v0h0v0h0v0h0l0,0h0v0h0v0h0v0h0v0h0v0h0s0,0,0,0h0s0,0,0,.06h0l0,0h0v0h0v0h0v0h0v0h0v0h.15v0h0v0h0v0h0v0h0s0,0,0,0h0s0,0,0,0h0l0,0v0H3v0h0v0h0v0h.07s0,0,0,0h0s0,0,0,0h0v0h0v0h0v0h0l0,0h.11l0,0h0l0,0h0l0,0h0l.06.05h0l0,0h0s0,0,0,0h0a0,0,0,0,1,0,0l0,0h0l0,0h0l0,0h0l.06.05h0l.11.1,0,0h0l0,0a.23.23,0,0,0,.07.07l0,.06h0l.06.06,0,0h0l0,0h0s0,0,0,0h.1l.11.12s0,0,0,0h0s0,0,0,0l0,0v0h.18v0h.57v0a0,0,0,0,1,0,0h.12s0,0,0,0h.15l0,0h0v0H6s0,0,0,0,0,0,0,0H6.2s0,0,0,0h0a0,0,0,0,1,0,0h.08a0,0,0,0,0,0,0h.2s0,0,0,0h0l0,0h0l0,0H7s0,0,0,0H7l0,0H7l0,0h.33l.07,0h.38l.13,0h.82a.5.5,0,0,0,.21,0h.33a0,0,0,0,1,0,0H9.7l.05,0h.36s0,0,0,0a0,0,0,0,0,0,0h0s0,0,0,0h.38a.16.16,0,0,0,.07,0h.07s0,0,0,0h.05s0,0,0,0h.56s0,0,0,0h.34s0,0,0,0h.07s0,0,0,0h.05s0,0,0,0h.33v0h0v0h0v0h0v0h0s0,0,0,0h0s0,0,0,0h.19v0h0l0,0h.08l0,0,0,0h.21l0,0h0a0,0,0,0,1,0,0h0s0,0,0,0h0s0,0,0,0h0s0,0,0,0h0s0,0,.06,0h.06a.4.4,0,0,1,.11,0h0l.05,0h.37a0,0,0,0,0,0,0h.05l0,0h0v0h0v0h0l0,0h.25l0,0h.06v0h0v0h0v0h0v0h0v0h0l0,0h.29l0,0h.13s0,0,0,0h0v0h0v0h0v0h.09v0h0v0h0v0h0v0h0v0h0v0l0-.08a.65.65,0,0,1,0-.13v0h0v0h0v0h0v0h0v0h0v0h0v0h0s0,0,0,0h0v0h0v0h0v0h0v0h0l0,0h0v0h0s0,0,0,0h0l0,0h.12l0,0h0s0,0,0,0h0l0,0h0s0,0,0,0h0s0,0,0,0h0s0,0,0,0h0v0h0v0h0v0h0v0h0v0s0,0,0,0h0v0h0s0,0,0,0h0s0,0,0,0h0l0,0h0v0h0v0h0a0,0,0,0,0,0,0h0l0,0h0a0,0,0,0,0,0,0h0v0h0v0h0v0h0s0,0,0,0h0s0,0,0,0h0v0h0v0h0v0h0v0h0v0h0v0h0v0h0v0h0v0h0v0h0v0h0v0h0v-.05h0v-.08h0v0h0v0h0v0h0v0h0v0h0v0h0v0h0v0h0v-.16h0v-.05h0v0h0v0h0v0h0v0h0v0h0v0h0v0h0s0,0,0,0h0v0h0v0h0v0h0v0h0l0,0h0s0,0,0,0h0v0h0v0h0l0-.11h0s0,0,0,0,0,0,0,0H15v0H14.9s0,0,0,0h0l0,0h-.07s0,0,0,0h0s0,0,0,0h0l0,0h-.07v0h0v-.09h0v0h0v0h0v0h0v0h0l0,0H14a0,0,0,0,0,0,0h-.06s0,0,0,0h-.3a.12.12,0,0,1-.05,0v0a.32.32,0,0,1,0-.14v0h0s0-.05,0-.06h0v0h-.06v0h0v0h0s0,0,0,0h-.12s0,0,0,0h0s0,0,0,.05h-.55l0,0h0l0,0h0l0,0h0l0,0h-.74v0h-.21s0,0,0,0h0s0,0,0,0h0l0,0h0l0,0h0v0h-.2s0,0,0,0H11v0h0s0,0,0,0h0s0,0,0,0h.22l0,0h.64l0,0h0v0h0v0h0v0h0v0h.18s0,0,0,0,0,0,0,0h0v0h0v0h0v0h0v0h0v0h0v0h.1v0h0s0,0,0,0h0v0h0v0h0v0h0v0h0v-.07h0v0h0v0h0v0h0s0,0,0,0h0l0,0h.42s0,0,0,0h0l0,0h0l0,0H13v0H13l0,0h0v0h0v0h0v0h0v0h0v0h.15v0h0v0h0v0h0v0h0v0h0v0h-.11v0h0a.17.17,0,0,0,.09.21h.41l0,0h0v0h0v0h0v0h0v.06h0v0h.13s0,0,0,0h.46l.05,0h.06s0,0,0,0h0s0,0,0,0h.35a0,0,0,0,0,0,0H15l0,0h0v0h0v0h.31s0,0,0,0h.13v.05h0v0h0v.05h0v.06h0s0,0,0,0,0,0,0,0h0s0,0,0,0,0,0,0,0h0v0h0v0h0v0h0s0,0,0,0h0s0,0,0,0l0,0h0l0,0h0v.21h0v0h0v0h0v0h0v0h0v0h0v0h0a0,0,0,0,1,0,0h0v0h0v0h0v0h0v0h0v0h0v0h0v0h0v0h0v0h0v0h0v0h0v0h0v0h0v0h0v0h0v0h0s0,0,0,0h0a0,0,0,0,1,0,0h0v0h0v0h0v0h0v0h0s0,0,0,0,0,0,0,0h0s0,0,0,0h0v0h0v.09h0v0l0,.06h-.29l0,0h0s0,0,0,0h0s0,0,0,0h0l0,0h0s0,0,0,0h0l0,0s0,0,0,0H14s0,0,0,0h0s0,0,0,0h0l0,0h-.25s0,0,0,0h0l0,0h0s0,0,0,0h-.25a0,0,0,0,1,0,0s0,0,0,0h0l0,0H11.73s0,0,0,0h0l0,.05v0h0v0h0v0h0v.06h0v0h0v0h-.19a0,0,0,0,0,0,0,0,0,0,0,1,0,0h0s0,0,0,0h-.05a.33.33,0,0,1-.1,0h-.11l0,0h0v0h0s0,0,0,0h0l0,0h0v0h0v0h0v0h0v0h0v0h0v0h0v0h0v0h0v0H9.14a.06.06,0,0,0-.05,0H8.87s0,0,0,0H8.73a.21.21,0,0,1-.08,0H8.51s0,0,0,0h0l0,0H8.29s0,0,0,0H8l0,0H8l0,0h0l0,0,0,0H7.63l0,0,0,0h0s0,0,0,0h-.2l0,0h0s0,0,0,0H7.14v0H7.05l0,0H7s0,0,0,0H6.8s0,0-.07,0h0s0,0,0,0h0l0,0h0s0,0,0,0h0s0,0,0,0h0l0,0h0l0,0h0l0,0h0v0h0l0,0h0l0,0h0s0,0,0,0h0s0,0,0,0h0s0,0,0,0l0,0h0s0,0,0,0h0s0,0,0,0h0s0,0,0,0,0,0,0,0,0,0,0,0H6v0H6v0H6v0h0l0,0h0l0,0h0l0,0h0v0h0v0h0v0h0v0h0v0h0l-.08-.08h0l0-.06v0s0-.06,0-.09v0l0-.06h0l0,0h0s0,0,0,0h0v0h0v0h0l0-.14v0h0v0h0v0h0v0h0v0h0v0h0v0h0v0h0v0h0v0h0s0,0,0,0v0h0a0,0,0,0,0,0,0h0v-.07h0a.21.21,0,0,0,0-.08h0v0h0v0h0v0h0s0,0,0,0h0v0h0v0h0v-.05a.26.26,0,0,1,0-.12v0a.45.45,0,0,0,0-.12v0h0v0h0v0h0v0h0v0h0v0h0v0h0s0,0,0,0h0l0,0h0v0h0v-.06h0v0h0v0h0v0h0v0h0v0h0v0h0v0h.11v0h0v0h0v0h0v0h0l0,0h0l0-.07v0h0v0h0v0h0v0h0l0,0h0v0H6v0H6v0h.06l0,0h0l0,0,0,0h0s0,0,0,0h0l0,0v0h0v0h0v0h0v0h.11l0,0h.07v0h0v0h0l0,0h0s0,0,0,0h0s0,0,0,0h0l0,0h0v0h0v0h0s0,0,0,0h0l0,0h0l0,0,.08-.06H7l0,0H7v0H7l0,0h0s0,0,0,0h.07v0h0l0,0h.11s0,0,0,0H7.5v0h0l0,0s0,0,0-.06h0v0h0l0,0h.16v0h0l0,0h0l0,0h0l0,0h.22l0,0s0,0,0,0h0s0,0,0,0h0l0,0h.22s.05,0,.06,0h.05s0,0,0,0h0l0,0h0c0-.06.09-.07.16-.09h.27l0,0s0,0,0,0h0v0h1.18a0,0,0,0,1,0,0h.55a.19.19,0,0,1,.08,0h0s0,0,0,0,0,0,0,0h0l.05,0h.33l.06,0h.09v0h1s.05,0,.06,0H13v0s0-.06.06-.07h.19a.16.16,0,0,0,.07,0h.05s0,0,0,0h.38l0,0,0,0,0,0h0l0,0h0l0,0h0l0,0h0l0,0H14v0h0v0h0v0h0v0h.05l0,0h0s0,0,0,0v-.06h0V11.4h0v0h0v0h0v0h0v0h0v0h0v0h0s0-.06,0-.06v0h0a0,0,0,0,1,0,0h0V11h0v0h0v0h0v0h0v0h0v0h0v0h0v0h0v0h0v0h0l0,0h0s0,0,0,0h0v0h0v0h0v0h0v0h0v0h0v0h0v0h0s0,0,0,0h0l0,0h0v0h0s0,0,0,0h0s0,0,0,0h0s0,0,0,0l-.08-.07h0l0,0h0l0,0h0l0,0h0v0h-.19l0,0h-.15s0,0-.06,0h0l0,0h0s0,0,0,0h0a.1.1,0,0,1,0-.05l0,0h0l0,0h-.19v0h0l0,0h0l0,0h-.33s0,0,0,0h0v0h0v0h0l0,.05h-.76l-.09,0h-.57l-.17,0h-.4l0,0H9.61l0,0h0s0,0,0,0H9.12l0,0H7.87Z"/><path class="cls-5" d="M15.08,15.78h0l0,0h0s0,0,0,0h0v0h.18s0,0,0,0h.18v0h0v0h0v0h0v0h.28v0h0v0h0s0,0,0,0h0s0,0,0,0H16a0,0,0,0,1,0,0h0v0h0v0h0v0h0l0,0h-.08s0,0,0,0h0l0,0h0v0h0v0h0v0h0v0h-.06l0,0h-.1s0,0,0,0h0v0h0l0,0H15.3s0,0,0,0H15.1l0,0h0v0h0v0h0Z"/><path class="cls-5" d="M15.91,16.2h0Z"/><path class="cls-5" d="M16.21,17.51h0a0,0,0,0,0,0,0h0v0h0v0h0v0h0v0h0v0h0v0h0v0h.06a0,0,0,0,1,0,0h0a0,0,0,0,0,0,0h0s0,0,0,0h0v0h0v0h0v0h0s0,0,0,0h.07l0,0h0v0s0-.05,0-.06h0v0h0v0h0v0h0s0,0,0,0h0s0,0,0,0h0v0h0V17.9h0v-.08a.48.48,0,0,1,0-.12v-.06h0v0h0v0h0v0h0s0,0,0,0h0s0,0,0,0h0v0h0s0,0,0,0v0h0v0h0v0h0v0h0v0h0v-.06h0v0h0V17h0v0h0v0h0v0h0v0h-.16v0h-.05l0,0h-.06v0h0v0h0v0h0v0h0v0h0v0h0v0h0v0h0v0h0v0h0v0h0a0,0,0,0,1,0,0h0v.05h0v0h0v0h0V17h0v.12h0a.21.21,0,0,0,0,.08h0s0,0,0,.05h0v.05s0,0,0,.07h0v0h0v0h0Z"/><path class="cls-5" d="M15.49,18.36Z"/><path class="cls-5" d="M8.3,23.23Z"/></svg>