<svg id="圖層_1" data-name="圖層 1" xmlns="http://www.w3.org/2000/svg" viewBox="0 0 48 42"><defs><style>.cls-1{fill:none;}.cls-2{fill:#00a1c7;}.cls-3{fill:#00b7de;}.cls-4{fill:#fff;}.cls-5{fill:#a9ce52;}.cls-6{fill:#231815;}</style></defs><rect class="cls-1" y="0.04" width="48" height="41.97"/><path class="cls-2" d="M37,21a13,13,0,1,1-13-13A13,13,0,0,1,37,21Z"/><path class="cls-3" d="M20.72,8.37l-2.24,7.24H15.84L12.42,27.07s4.87,7.11,11.33,7.11,10.66-5.66,11.45-7.24L31.52,15.61h-3l-1.85-7.5A19.27,19.27,0,0,0,20.72,8.37Z"/><path class="cls-4" d="M22.3,8.24l-1.71,7.5h-2L14.53,29.83s4.34,4.35,9.08,4.35,8.7-2.76,9.62-4.35L28.88,16.14h-2L25.06,8.37Z"/><path class="cls-5" d="M15.14,30.25a13,13,0,0,0,17.79.42,15.24,15.24,0,0,0-9.18-2.88A15.48,15.48,0,0,0,15.14,30.25Z"/><path class="cls-5" d="M23.81,22.68a5.92,5.92,0,0,0-5-2.86s1.1,4.94,4.8,5.49a1.53,1.53,0,0,0,.22-.17,1.53,1.53,0,0,0,.22.17c3.7-.55,4.8-5.49,4.8-5.49A5.92,5.92,0,0,0,23.81,22.68Z"/><rect class="cls-5" x="23.22" y="24.17" width="1.18" height="4.35"/><path class="cls-4" d="M24,34.35A13.33,13.33,0,1,1,37.32,21,13.35,13.35,0,0,1,24,34.35ZM24,8.4A12.62,12.62,0,1,0,36.61,21,12.63,12.63,0,0,0,24,8.4Z"/><path class="cls-6" d="M9.84,26.14l.81,1.46-.16.09-.13-.19a.52.52,0,0,0-.14-.15.33.33,0,0,0-.16-.05.34.34,0,0,0-.16,0L7.49,28.67l0,0L11,28.28l.06.11L8.74,31.06v0l2-1.09a2.15,2.15,0,0,0,.41-.28.51.51,0,0,0,.16-.23.76.76,0,0,0,0-.27A1.07,1.07,0,0,0,11.2,29l.17-.09.74,1.33-.17.1a1.37,1.37,0,0,0-.15-.21.51.51,0,0,0-.18-.13.45.45,0,0,0-.26,0,3.74,3.74,0,0,0-.47.23l-1.7.93a1.05,1.05,0,0,0-.22.17.37.37,0,0,0-.09.19.45.45,0,0,0,0,.23A1.43,1.43,0,0,0,9,32L8.79,32l-.63-1.12,2-2.32-2.52.34-.28,0-.19.06L6.53,28l.17-.09a1.12,1.12,0,0,0,.11.15.52.52,0,0,0,.12.13.24.24,0,0,0,.15.06l.16,0,2.39-1.32a.43.43,0,0,0,.12-.11.25.25,0,0,0,0-.16,1,1,0,0,0,0-.17c0-.08-.05-.14-.07-.18Z"/><path class="cls-6" d="M9.43,24.2l.46,1.63-.18.05s0-.11-.07-.19a.81.81,0,0,0-.08-.18.31.31,0,0,0-.13-.1.34.34,0,0,0-.17,0l-2.64.74a.6.6,0,0,0-.14.07.26.26,0,0,0-.06.17,1.22,1.22,0,0,0,0,.21.94.94,0,0,0,0,.2l-.19.05-.46-1.64.18,0a1.26,1.26,0,0,0,.08.18l.09.18a.24.24,0,0,0,.14.11.43.43,0,0,0,.16,0l2.64-.75a.29.29,0,0,0,.14-.08.3.3,0,0,0,.07-.15,1.58,1.58,0,0,0,0-.19,1,1,0,0,0,0-.21Z"/><path class="cls-6" d="M5.42,20.26s0,.12.06.22a1.2,1.2,0,0,0,.1.22.37.37,0,0,0,.26.11,4,4,0,0,0,.49,0l2.76-.19v.23l-2.93,2.5,1.95-.14a2.37,2.37,0,0,0,.5-.07A.45.45,0,0,0,8.86,23,.51.51,0,0,0,9,22.73a1.28,1.28,0,0,0,0-.25l.19,0L9.29,24,9.1,24A1.67,1.67,0,0,0,9,23.79a.49.49,0,0,0-.1-.21.34.34,0,0,0-.24-.11,2.16,2.16,0,0,0-.52,0l-1.86.12-.24.06a.52.52,0,0,0-.18.13.86.86,0,0,0-.14.27,1.12,1.12,0,0,0,0,.27H5.52l-.08-1.07,2.73-2.32-1.79.12a2.48,2.48,0,0,0-.51.08.38.38,0,0,0-.22.14,1,1,0,0,0-.09.25,1.58,1.58,0,0,0,0,.26H5.34l-.1-1.53Z"/><path class="cls-6" d="M9.36,18.22,9.13,19.9l-.18,0a1.79,1.79,0,0,1,0-.21,1,1,0,0,0,0-.2.32.32,0,0,0-.08-.14.3.3,0,0,0-.16-.06L6,18.91a.39.39,0,0,0-.16,0,.18.18,0,0,0-.12.12,1.72,1.72,0,0,0-.09.19,1.36,1.36,0,0,0-.06.2l-.19,0,.23-1.68.18,0v.2a1.12,1.12,0,0,0,0,.2.22.22,0,0,0,.08.15.47.47,0,0,0,.15.06l2.72.36a.29.29,0,0,0,.16,0A.23.23,0,0,0,9,18.57a.57.57,0,0,0,.07-.17,1.15,1.15,0,0,0,.06-.21Z"/><path class="cls-6" d="M8.44,15.08a.9.9,0,0,1,.7,0,1,1,0,0,1,.68.6,1.29,1.29,0,0,1,0,1,1.42,1.42,0,0,1-.23.46,1.61,1.61,0,0,1-.31.36l.15.17-.06.2-1.25-.35.06-.2a3.32,3.32,0,0,0,.46,0,1.66,1.66,0,0,0,.42-.12,1,1,0,0,0,.33-.23.93.93,0,0,0,.22-.39.76.76,0,0,0,0-.32.55.55,0,0,0-.06-.26.55.55,0,0,0-.16-.18.83.83,0,0,0-.25-.12.82.82,0,0,0-.44,0,.8.8,0,0,0-.4.27l-.26.34-.27.32a1.17,1.17,0,0,1-.51.36.91.91,0,0,1-.63,0,.91.91,0,0,1-.36-.2,1.16,1.16,0,0,1-.24-.34A1,1,0,0,1,6,16a1.32,1.32,0,0,1,.05-.44,1.19,1.19,0,0,1,.22-.42,2.16,2.16,0,0,1,.29-.31l-.14-.16.07-.2,1.2.36-.06.2H7.21a1.59,1.59,0,0,0-.39.08.85.85,0,0,0-.32.19.8.8,0,0,0-.21.36.66.66,0,0,0,0,.46.5.5,0,0,0,.33.29.61.61,0,0,0,.42,0,.85.85,0,0,0,.35-.23l.27-.32a2.48,2.48,0,0,1,.25-.3,1.42,1.42,0,0,1,.24-.25A1.2,1.2,0,0,1,8.44,15.08Z"/><path class="cls-6" d="M9.38,11.05l-.09.15-.24,0H8.77a1.08,1.08,0,0,0-.27.05.32.32,0,0,0-.19.11l-.11.17a1.51,1.51,0,0,0-.12.2L8,11.84l2.64,1.48a.53.53,0,0,0,.16,0A.29.29,0,0,0,11,13.3l.14-.15a1.49,1.49,0,0,0,.15-.19l.16.09-.87,1.56-.17-.09a2.17,2.17,0,0,0,.1-.21.62.62,0,0,0,.06-.21.29.29,0,0,0,0-.16.38.38,0,0,0-.13-.12L7.73,12.33l-.08.13-.09.18a1.38,1.38,0,0,0-.1.22.25.25,0,0,0,0,.21,1.3,1.3,0,0,0,.1.25,1.28,1.28,0,0,0,.15.25l.15.18-.09.17-.89-.5,1.61-2.88Z"/><path class="cls-6" d="M14.36,9.57l-.69.75-1.08-.17-1-.1-.26.29.88.81a.29.29,0,0,0,.14.08.18.18,0,0,0,.16,0l.14-.1.15-.14.14.13-1.08,1.17-.13-.13s.06-.08.1-.15a.51.51,0,0,0,.09-.14.3.3,0,0,0,0-.16.42.42,0,0,0-.11-.14l-2-1.85a.55.55,0,0,0-.14-.09.19.19,0,0,0-.16,0l-.15.09a.94.94,0,0,0-.14.12l-.14-.13,1.18-1.28a1.88,1.88,0,0,1,.34-.3A1.41,1.41,0,0,1,11,8a.86.86,0,0,1,.39,0,.82.82,0,0,1,.37.21,1,1,0,0,1,.24.31.81.81,0,0,1,.08.34,1.48,1.48,0,0,1-.05.35,1.6,1.6,0,0,1-.15.37l.78.08.76.08a1.69,1.69,0,0,0,.32,0l.22,0a.56.56,0,0,0,.15-.1.81.81,0,0,0,.13-.11Zm-3-.88a.69.69,0,0,0-1.06.06L10,9.08l1.19,1.1.24-.26a.85.85,0,0,0,.25-.61A.89.89,0,0,0,11.34,8.69Z"/><path class="cls-6" d="M15,4.85a.58.58,0,0,0-.1.11.51.51,0,0,0-.08.13l-.06.16s0,.11,0,.23,0,.48,0,.71,0,.53.07.88a1.68,1.68,0,0,0,0,.3,1.29,1.29,0,0,0,.15.27l.4.6a.33.33,0,0,0,.13.11.25.25,0,0,0,.17,0L16,8.3a1,1,0,0,0,.21-.1l.1.16-1.46,1-.1-.16.17-.14A.51.51,0,0,0,15,8.9a.25.25,0,0,0,.05-.16A.37.37,0,0,0,15,8.58l-.52-.76s-.06-.06-.13-.1l-.24-.14-.67-.35c-.24-.13-.45-.24-.63-.32a1.07,1.07,0,0,0-.25-.1l-.21,0a.34.34,0,0,0-.16,0l-.15.06L12,6.73l1.33-.91.1.16a1.72,1.72,0,0,0-.29.24c-.05.06-.07.11,0,.14l0,0a.35.35,0,0,1,.09.06l.16.08.17.09.48.25.62.32q0-.8-.06-1.23a1.66,1.66,0,0,0-.07-.5.15.15,0,0,0-.09-.06l-.13,0-.16.08L14,5.59l-.1-.16,1.09-.74Z"/><path class="cls-6" d="M20.25,3.27a1.89,1.89,0,0,1,.55.51,2.36,2.36,0,0,1,.35.75,2.14,2.14,0,0,1,.08.82,1.79,1.79,0,0,1-.22.71,1.67,1.67,0,0,1-.45.54,2,2,0,0,1-.63.32,1.92,1.92,0,0,1-.75,0,1.87,1.87,0,0,1-.66-.24A2,2,0,0,1,18,6.22a2,2,0,0,1-.34-.72,2.28,2.28,0,0,1-.09-.84,1.85,1.85,0,0,1,.22-.7,1.51,1.51,0,0,1,.46-.54,1.57,1.57,0,0,1,.63-.32A1.76,1.76,0,0,1,19.59,3,1.68,1.68,0,0,1,20.25,3.27ZM20.58,6a1.57,1.57,0,0,0,.07-.58,3.61,3.61,0,0,0-.12-.68A3.12,3.12,0,0,0,20.26,4a1.63,1.63,0,0,0-.36-.48,1,1,0,0,0-.45-.24,1,1,0,0,0-.52,0,1,1,0,0,0-.48.29,1.16,1.16,0,0,0-.25.48,1.8,1.8,0,0,0-.05.58,3.89,3.89,0,0,0,.12.65,3,3,0,0,0,.25.65,1.58,1.58,0,0,0,.36.47,1,1,0,0,0,.44.26,1,1,0,0,0,.54,0,1,1,0,0,0,.46-.27A1,1,0,0,0,20.58,6Z"/><path class="cls-6" d="M24.78,3.42h-.2A1.43,1.43,0,0,0,24.33,3,.62.62,0,0,0,24,2.73h-.45l-.64,0,.05,1.52.44,0a.78.78,0,0,0,.3,0,.53.53,0,0,0,.19-.13A.85.85,0,0,0,24,3.88,1.86,1.86,0,0,0,24,3.61h.2l.05,1.48h-.2A.92.92,0,0,0,24,4.84a.93.93,0,0,0-.1-.22.45.45,0,0,0-.21-.12,1.23,1.23,0,0,0-.29,0l-.44,0L23,5.79a.26.26,0,0,0,0,.15.22.22,0,0,0,.12.11l.18,0,.2,0V6.3l-1.64.06V6.17l.21,0,.17,0A.29.29,0,0,0,22.4,6a.43.43,0,0,0,0-.17l-.09-2.72a.62.62,0,0,0,0-.16.26.26,0,0,0-.12-.11l-.2,0-.19,0V2.57l3-.1Z"/><path class="cls-6" d="M29.76,6.24l-.37,1-3-.86.05-.18.21,0a.61.61,0,0,0,.18,0A.23.23,0,0,0,27,6.23.26.26,0,0,0,27,6.09l.75-2.62a.45.45,0,0,0,0-.16.22.22,0,0,0-.09-.14l-.16-.11A.83.83,0,0,0,27.36,3l.05-.18,2.81.79L30,4.47l-.2,0a1.15,1.15,0,0,0-.1-.48.57.57,0,0,0-.25-.33l-.19-.07L29,3.46l-.57-.16L28,4.74l.41.12a.72.72,0,0,0,.3,0,.29.29,0,0,0,.19-.08.53.53,0,0,0,.16-.17,1.19,1.19,0,0,0,.12-.22l.19.06L29,5.91l-.19,0a1.23,1.23,0,0,0,0-.28.57.57,0,0,0,0-.22.37.37,0,0,0-.14-.18.92.92,0,0,0-.26-.11L27.94,5l-.31,1.1a1.91,1.91,0,0,0-.05.26.31.31,0,0,0,.05.17.36.36,0,0,0,.17.11,1.65,1.65,0,0,0,.32.11l.22.06.24.06.21,0a.32.32,0,0,0,.16,0,1.72,1.72,0,0,0,.36-.3,3.33,3.33,0,0,0,.27-.33Z"/><path class="cls-6" d="M33.73,7.57a1.91,1.91,0,0,1-.58.64,1.71,1.71,0,0,1-.7.26,2.06,2.06,0,0,1-.74,0A2.69,2.69,0,0,1,31,8.16l-1.35-.79.09-.16.18.09.16,0a.22.22,0,0,0,.16,0,.43.43,0,0,0,.11-.12l1.37-2.37a.3.3,0,0,0,.05-.15.19.19,0,0,0-.05-.16.41.41,0,0,0-.12-.14,1.1,1.1,0,0,0-.14-.11l.1-.16L33,4.94a2.13,2.13,0,0,1,.53.42,2.16,2.16,0,0,1,.35.54,1.55,1.55,0,0,1,.14.8A1.93,1.93,0,0,1,33.73,7.57Zm-.57-.32a2.06,2.06,0,0,0,.26-.65,1.57,1.57,0,0,0,0-.61,1.23,1.23,0,0,0-.22-.53,1.35,1.35,0,0,0-.45-.4l-.21-.12-.18-.1L30.91,7.35a.38.38,0,0,0-.05.36.82.82,0,0,0,.33.3,1.39,1.39,0,0,0,.58.2,1.14,1.14,0,0,0,.52-.09,1.57,1.57,0,0,0,.47-.32A3.13,3.13,0,0,0,33.16,7.25Z"/><path class="cls-6" d="M38.24,9.53l-.18-.13a.61.61,0,0,0-.22-.1.32.32,0,0,0-.27.09,2.19,2.19,0,0,0-.36.3L36,10.85a1.13,1.13,0,0,1-.48.3,1.25,1.25,0,0,1-.51,0,1.41,1.41,0,0,1-.46-.17,1.69,1.69,0,0,1-.36-.27,1.92,1.92,0,0,1-.36-.49,1.62,1.62,0,0,1-.15-.49,1.07,1.07,0,0,1,.06-.44A1,1,0,0,1,34,9l1.58-1.58a.26.26,0,0,0,.09-.13.24.24,0,0,0,0-.17.79.79,0,0,0-.08-.16,1,1,0,0,0-.1-.14l.13-.14,1.1,1.11-.13.13a1.18,1.18,0,0,0-.15-.11l-.14-.09a.18.18,0,0,0-.16,0,.33.33,0,0,0-.14.1L34.53,9.24a1.29,1.29,0,0,0-.2.25.71.71,0,0,0-.13.31.79.79,0,0,0,0,.37,1.18,1.18,0,0,0,.28.42,1.14,1.14,0,0,0,.42.28.78.78,0,0,0,.39.05.91.91,0,0,0,.33-.1,1.15,1.15,0,0,0,.26-.19L37,9.54a2.89,2.89,0,0,0,.31-.38.33.33,0,0,0,.08-.26.62.62,0,0,0-.1-.25,1.16,1.16,0,0,0-.15-.21l.14-.13L38.38,9.4Z"/><path class="cls-6" d="M36.49,13.67a1.54,1.54,0,0,1-.22-.62,1.52,1.52,0,0,1,0-.67,1.86,1.86,0,0,1,.33-.64,2.42,2.42,0,0,1,.63-.54,2.37,2.37,0,0,1,.77-.3,1.84,1.84,0,0,1,.74,0,1.71,1.71,0,0,1,.65.28,1.88,1.88,0,0,1,.48.53,1.7,1.7,0,0,1,.2.47,1.84,1.84,0,0,1,.06.47h.21l.11.18-1.14.71-.12-.18a3.28,3.28,0,0,0,.3-.33,1.39,1.39,0,0,0,.23-.37,1,1,0,0,0,.09-.41.74.74,0,0,0-.12-.39.88.88,0,0,0-.34-.35,1.09,1.09,0,0,0-.49-.16,1.63,1.63,0,0,0-.59.08,2.89,2.89,0,0,0-.69.3,2.8,2.8,0,0,0-.52.42,1.84,1.84,0,0,0-.32.5,1.14,1.14,0,0,0,.05,1,1.28,1.28,0,0,0,.26.3,1.14,1.14,0,0,0,.32.18,2,2,0,0,0,.35.06,1.1,1.1,0,0,0,.36,0l0,.23a1.69,1.69,0,0,1-1-.11A1.65,1.65,0,0,1,36.49,13.67Z"/><path class="cls-6" d="M38.46,18.43,38,16.93l.18-.05a2.86,2.86,0,0,0,.16.31c0,.08.1.11.14.1l0,0,.05,0,.72-.55-.41-1.27-.34,0h-.47l-.11,0c-.07,0-.1.09-.11.21a1.33,1.33,0,0,0,0,.38l-.18.06-.43-1.36.18-.05a1.15,1.15,0,0,0,.08.15.58.58,0,0,0,.12.14.84.84,0,0,0,.19.12,1.19,1.19,0,0,0,.24,0l1.72.12,1.69.1.07.2-2.73,2.19a1.84,1.84,0,0,0-.14.14.67.67,0,0,0-.07.17.51.51,0,0,0,0,.18.7.7,0,0,0,0,.16Zm1-1.92,1.24-1-1.58-.1Z"/><path class="cls-6" d="M41.39,21.24l0-.18a1.38,1.38,0,0,0,.22-.1,1.46,1.46,0,0,0,.24-.17,1.21,1.21,0,0,0,.2-.19.46.46,0,0,0,.09-.19V20.2c0-.08,0-.16,0-.23l0-.15-3,.24a.28.28,0,0,0-.16.05.22.22,0,0,0-.1.14,1,1,0,0,0,0,.2c0,.11,0,.19,0,.24l-.18,0-.15-1.78h.19s0,.12,0,.22a.93.93,0,0,0,.06.21.32.32,0,0,0,.11.12.42.42,0,0,0,.18,0l3-.25,0-.15a1.83,1.83,0,0,0,0-.21l0-.23a.3.3,0,0,0-.12-.17,1.34,1.34,0,0,0-.23-.16l-.26-.12-.23-.06,0-.19,1-.08.27,3.28Z"/><path class="cls-6" d="M38.39,23.34l.17-1.69.19,0v.21a.52.52,0,0,0,0,.19.27.27,0,0,0,.08.14.34.34,0,0,0,.16.06l2.73.27a.41.41,0,0,0,.16,0s.08-.05.12-.12l.08-.2c0-.08,0-.14,0-.19l.19,0-.17,1.69-.19,0v-.2a1.23,1.23,0,0,0,0-.2.21.21,0,0,0-.09-.14.44.44,0,0,0-.16-.06L39,22.83a.39.39,0,0,0-.16,0,.34.34,0,0,0-.12.12s0,.1-.07.18,0,.15-.05.21Z"/><path class="cls-6" d="M40.7,27.61a1.91,1.91,0,0,1-.72.18,2.15,2.15,0,0,1-.82-.1,2.25,2.25,0,0,1-.74-.38,1.83,1.83,0,0,1-.48-.57,1.59,1.59,0,0,1-.21-.67,1.75,1.75,0,0,1,.08-.71,1.71,1.71,0,0,1,.35-.65,1.69,1.69,0,0,1,.57-.42,1.81,1.81,0,0,1,.71-.18,2.42,2.42,0,0,1,.79.1,2.31,2.31,0,0,1,.75.39,2,2,0,0,1,.48.56,2,2,0,0,1,.21.68,1.87,1.87,0,0,1-.08.7,1.75,1.75,0,0,1-.34.63A1.78,1.78,0,0,1,40.7,27.61Zm-2.45-1.18a1.87,1.87,0,0,0,.46.37,2.68,2.68,0,0,0,.64.27,3.1,3.1,0,0,0,.7.14,1.66,1.66,0,0,0,.6-.05,1.11,1.11,0,0,0,.44-.24,1,1,0,0,0,.28-.45,1,1,0,0,0,0-.56,1.18,1.18,0,0,0-.27-.47,1.75,1.75,0,0,0-.47-.35,3.39,3.39,0,0,0-.61-.26,3.05,3.05,0,0,0-.68-.14,1.63,1.63,0,0,0-.59,0,1,1,0,0,0-.46.24,1,1,0,0,0-.28.45A1.1,1.1,0,0,0,38,26,1.07,1.07,0,0,0,38.25,26.43Z"/><path class="cls-6" d="M38.19,32.57a1.35,1.35,0,0,0,.08-.21,1.12,1.12,0,0,0,.06-.23.45.45,0,0,0-.15-.25,3,3,0,0,0-.39-.29l-2.33-1.48.12-.2,3.84-.27-1.65-1.05a2.72,2.72,0,0,0-.44-.23.49.49,0,0,0-.28,0,.54.54,0,0,0-.23.15,1.25,1.25,0,0,0-.18.19l-.16-.1.83-1.31.16.1a1.39,1.39,0,0,0-.08.23.78.78,0,0,0,0,.23.4.4,0,0,0,.12.23,3.29,3.29,0,0,0,.43.31l1.57,1a.67.67,0,0,0,.23.1.41.41,0,0,0,.22,0,.87.87,0,0,0,.27-.14.92.92,0,0,0,.2-.18l.16.1-.58.91-3.57.24,1.51,1a2.57,2.57,0,0,0,.45.24.44.44,0,0,0,.27,0,.84.84,0,0,0,.21-.15,1,1,0,0,0,.18-.19l.16.1-.82,1.3Z"/><path class="cls-6" d="M24,41.66A20.64,20.64,0,1,1,44.64,21,20.67,20.67,0,0,1,24,41.66Zm0-41A20.32,20.32,0,1,0,44.32,21,20.34,20.34,0,0,0,24,.7Z"/><path class="cls-6" d="M15.27,32.29l.19.1c.13.14.11.31-.06.5l.61.41c.07,0,.08.11,0,.23l.44-.2.11.06c.06.25-.3.5-1.07.74l.35.24c-.12.31-.33.34-.63.1L15,34.29l-.63.08,1.1.66c.13.18,0,.27-.43.25l-.81.12.05.45.64.28c0,.27-.18.3-.71.08l0,0a2.5,2.5,0,0,1-.57,1,1.25,1.25,0,0,1-1.56-.4l.07-.61h.05l.48.39c.4.21.69.18.88-.09l.24-.41a13.68,13.68,0,0,0-1.84-.42c-.11-.05-.15-.11-.14-.19l.1-.19c0-.2.41-.15,1.18.14l.84.26c.05,0,0-.28-.19-.76l.05-.1.07,0c.07,0,.17.1.28.28l.54-.12v0a2.79,2.79,0,0,0-1.76-.68l-.27-.08a.73.73,0,0,1-.26-.65l.07-.12s.16.05.39.23a2.32,2.32,0,0,0,1.57.32l.05,0-1-.58-.47-.2L12.87,33l.08-.15a.43.43,0,0,1,.29-.09,6.72,6.72,0,0,0,1.23.73l.27-.57-.9-.4,0-.15.08-.15.25-.08.79.45.22-.32Zm-.06.94-.36.53.21.12a3.1,3.1,0,0,0,.78-.26v0Zm2.18,2.56.17.1c.15.07,0,.34-.43.8a5,5,0,0,1-.84.82,3.22,3.22,0,0,0,.85,1.43l.24.24c-.11.31-.48.31-1.11,0q-.19-.08-.48-1.44h0a3.62,3.62,0,0,1-.9.21,1.19,1.19,0,0,1-.41-.08.87.87,0,0,1-.3-.84l.09-.17h0a1.48,1.48,0,0,0,1.42.3l-.13-1.33.06-.11c.07-.06.12-.08.17-.05l.14.08c.05,0,.08.2.11.58l.11.64a3.08,3.08,0,0,0,1.13-1.18Zm.17-1.87.15.09c.11.14-.09.36-.58.67l.36.25,1.3.73c-.05.33-.23.4-.55.23a5,5,0,0,0-1.14-.69L16.65,35l-.38.19c-.25-.07-.37-.26-.37-.58l.07-.12A2.21,2.21,0,0,0,17.56,33.92Z"/><path class="cls-6" d="M24.23,34.91h.22c.2,0,.24.24.1.77l2.57,0,.7,0c.16.23,0,.46-.59.67l-1.69-.15.58.85q0,.3-.27.27l-2,0q0-.08-.9,0a.39.39,0,0,1-.44-.12V37s.18-.22.67-.51l.39-.4a16,16,0,0,0-2.23.17.45.45,0,0,1-.47,0l0-.2.24-.25a9.42,9.42,0,0,0,1.58,0l1.51,0L24,35.15v0A.22.22,0,0,1,24.23,34.91ZM26,37.62h.19c.19,0,.19.28,0,.88l0,1.17a1.78,1.78,0,0,1,0,.81c-.4.2-.55-.07-.46-.81a17.69,17.69,0,0,0-2.73.11,1.74,1.74,0,0,1-1.44.78,1.25,1.25,0,0,1-.69-.53v-.15c0-.06.08-.07.24-.05a3.57,3.57,0,0,0,1.24-.2c.5-.16.64-.78.44-1.86l.12-.12a3.74,3.74,0,0,0,1.08,0h1.88Zm-.26,1.21-2.53.11-.05.36,2.55,0ZM24.06,38l-.86.09v.35h2.53v-.39L25.64,38Zm.18-1.93a5.61,5.61,0,0,1-.93.72h0a5.23,5.23,0,0,0,2.11,0l0-.08L25,36.1Z"/><path class="cls-6" d="M31.72,35l.14-.11c.15-.11.3.09.43.61l0,0,.53-.46c.22.05.26.18.13.41l-1,.79a9.68,9.68,0,0,0-1.38,1.22.15.15,0,0,1-.17,0l-.1-.11a.31.31,0,0,1,.06-.31,4.85,4.85,0,0,0,.65-.52s-.11-.1-.39-.2l-.23-.14a.2.2,0,0,1,0-.19l.16-.13c.09-.14.29,0,.63.42l0,.05.8-.64-.38-.62Zm-1.39-.41.15-.12c.14-.12.32,0,.53.44l.88-.72c.23.2.2.38-.1.56l-1.5,1.2-.32.33h-.15l-.1-.11a.33.33,0,0,1,0-.28,5.19,5.19,0,0,0,.93-.74l-.39-.31A.22.22,0,0,1,30.33,34.54Zm1,2.67c0-.06.17-.13.42-.23l1.08-.84a.31.31,0,0,1,.17-.2c.13-.09.36.14.71.7l.36.44c.11.09.1.2,0,.32a6.1,6.1,0,0,0-1.34,1l-.25.2-.12,0s-.19-.31-.65-.81l-.41-.44Zm.58,0c-.13,0-.07.19.16.44l.38.44h.14l.85-.71.2-.13c.08-.05-.06-.27-.4-.65l-.17-.2c-.06-.07-.35.13-.89.6Zm.39-3.72,1.64-1.31c.31-.09.39.2.24.89l0,.4s.13,0,.36,0a1,1,0,0,1,1,.56c.16.54-.11,1.07-.82,1.59l.71.77a.45.45,0,0,1,.08.34c-.11.16-.25.17-.41,0s-.85-1-2.14-2.53l-.4-.42a.25.25,0,0,1-.24.14l-.14-.14C32.1,33.77,32.14,33.66,32.25,33.53Zm.57,0,1.6,1.8a1.58,1.58,0,0,0,.64-.83l0-.26L34.94,34c-.14-.14-.39-.16-.74-.08-.06,0-.16.11-.29.42a.16.16,0,0,1-.2,0l-.09-.11.06-1.42h0Z"/></svg>