<svg id="圖層_1" data-name="圖層 1" xmlns="http://www.w3.org/2000/svg" viewBox="0 0 86 42"><defs><style>.cls-1{fill:#da538f;}.cls-2{fill:#8ab850;}.cls-3{fill:#efdc29;}.cls-4{fill:#8a5d9b;}.cls-5{fill:#32afd4;}.cls-6{fill:#d9538f;}.cls-7{fill:#88b746;}.cls-8{fill:#ec9b29;}.cls-9{fill:none;}</style></defs><path class="cls-1" d="M67.85,24.28l.29-.08a1.38,1.38,0,0,1,0,.35,8.26,8.26,0,0,0,.4,2.92A9.51,9.51,0,0,0,70,30.29a8.42,8.42,0,0,0,.69.77,6,6,0,0,0,5.66,1.46,8.56,8.56,0,0,0,.83-.23,9.82,9.82,0,0,1-.24,1,6.67,6.67,0,0,1-1.09,2.1c-2.24,2.84-6.68,2.71-9.44.77a8,8,0,0,1-1-.91,5.94,5.94,0,0,1-.87-1.14C62.29,30.5,63.75,25.45,67.85,24.28Z"/><path class="cls-2" d="M77.28,30.9a6.9,6.9,0,0,0-3.93-6.14A7.37,7.37,0,0,0,69,24.05a4.21,4.21,0,0,0-.85.15.61.61,0,0,1,0-.23A7.33,7.33,0,0,1,69,21.36c1.56-2.82,5.5-3.59,8.26-2.29a7.29,7.29,0,0,1,2.26,1.81c2,2.37,2.53,6.7.43,9.41a6.41,6.41,0,0,1-2.79,2c0-.08,0-.16,0-.26C77.26,31.67,77.28,31.28,77.28,30.9Z"/><path class="cls-3" d="M70.69,31.06a8.42,8.42,0,0,1-.69-.77,9.19,9.19,0,0,1-1.49-2.82,9,9,0,0,1-.4-2.92,1.38,1.38,0,0,1,0-.35,3.87,3.87,0,0,1,.85-.15,7.34,7.34,0,0,1,4.38.71,7,7,0,0,1,3.94,6.14,9.14,9.14,0,0,1-.08,1.15c0,.08,0,.16,0,.26a3.7,3.7,0,0,1-.82.24A6.07,6.07,0,0,1,70.69,31.06Z"/><path d="M71.33,28.06h0a.33.33,0,0,1,.34.32,1.38,1.38,0,0,0,.38.9.89.89,0,0,0,.71.21.81.81,0,0,0,.64-.31,1.15,1.15,0,0,0,.19-.72.25.25,0,0,1,0-.24.26.26,0,0,1,.21-.13h0a.34.34,0,0,1,.35.29,1.62,1.62,0,0,1-.32,1.22,1.45,1.45,0,0,1-1.12.56h0a1.68,1.68,0,0,1-1.2-.37A2,2,0,0,1,71,28.43.38.38,0,0,1,71.33,28.06Z"/><path d="M73.72,27.45c-.58.05-.66-.91-.08-.93a.47.47,0,0,1,.08.93Z"/><path d="M71.41,26.57c.58-.05.66.9.08.93a.47.47,0,0,1-.08-.93Z"/><polygon class="cls-4" points="11 4.07 11.84 3.95 12.28 10.16 11.47 10.26 11 4.07"/><polygon class="cls-4" points="14.08 6.38 14.74 5.98 16.45 8.26 15.86 8.74 14.08 6.38"/><polygon class="cls-4" points="7.86 6.41 8.77 6.61 8.04 9.08 7.17 8.88 7.86 6.41"/><path class="cls-4" d="M15.21,9.44a1.21,1.21,0,0,0,.37.88l-1.95,1.29.78,1.2-.89.63-1-1.28L9.83,13.87l.45,5.91-1-.05-.38-5.15L6.46,16s-.65.58-.77-.28a.77.77,0,0,1,.45-.46l8.92-5.83Z"/><polygon class="cls-4" points="11.16 14.11 16.85 14.11 16.92 14.78 14.66 14.77 14.64 15.56 16.28 15.59 16.3 16.41 14.6 16.39 14.56 17.14 16.21 17.16 16.21 18.04 14.62 18.05 14.56 18.88 16.96 19.12 16.85 19.91 11.19 19.37 11.36 18.56 13.38 18.77 13.37 18.08 11.66 18.11 11.58 17.26 13.44 17.2 13.44 16.34 11.9 16.41 11.83 15.57 13.31 15.56 13.35 14.82 11.23 14.8 11.16 14.11"/><polygon class="cls-4" points="24.67 13.97 21.74 18.6 22.3 19.47 25.14 14.88 25.24 13.76 24.67 13.97"/><path class="cls-4" d="M25.76,14.51s1.72,3.93,3.41,5l1.1-.43c-.23.14-4.31-4.37-4.18-5.29Z"/><polygon class="cls-4" points="22.08 5.05 22.9 5.71 21.94 7.13 23.25 7.55 22.92 8.59 20.26 7.57 22.08 5.05"/><polygon class="cls-4" points="25.72 4.99 26.29 5.86 25.56 6.38 26.6 7.53 25.89 8.25 23.99 6.2 25.72 4.99"/><polygon class="cls-4" points="28.7 5.01 29.6 5.67 28.8 6.66 29.6 7.55 28.86 8.25 27.44 6.67 28.7 5.01"/><path class="cls-4" d="M21.43,10.05l.44,4.12,6.64-.2,1-4.13Zm3.49,3.2-2.41,0,0-1,2.41.15Zm0-1.81-2.53,0v-.55h2.52Zm2.69,1.85H26.1l.09-.79h1.6ZM28,11.58l-1.85-.1,0-.64,2,0Z"/><polygon class="cls-4" points="24.82 20.29 25.96 20.29 26.16 13.61 24.99 13.61 24.82 20.29"/><polygon class="cls-4" points="26.61 15.11 31.03 14.87 31.04 15.73 20.02 16.43 20 15.48 26.61 15.11"/><polygon class="cls-5" points="29.5 31.95 30.29 32.78 28.53 34.32 28.03 33.88 29.5 31.95"/><polygon class="cls-5" points="27.44 34.4 31.12 36.6 30.93 36.9 30.21 37.35 27.37 35.24 27.44 34.4"/><path class="cls-5" d="M24.82,22s-.23-.8.47-.77c0,0,.35,0,.55.63l.62,1.59a.64.64,0,0,1-.21.6s-.37.2-.74-.28Z"/><path class="cls-5" d="M29.8,29h-.64l.16-1.79H27.13l.11-1.54,2-.05a.6.6,0,0,0,.74-.4.47.47,0,0,0-.55-.61l-7.12.2L20.73,35.58a.48.48,0,0,0,.33.73.59.59,0,0,0,.69-.39L23.2,25.77l2.84,0S26,27.17,26,27.16H23.83a.61.61,0,1,0-.15,1.2h2.26V29H23.65a.61.61,0,0,0-.65.5c0,.59.5.48.5.48h2.39l-.05.58-2.17.06c-.51,0-.56.6-.56.6a.58.58,0,0,0,.62.51l2,0,0,.91-1.15,1,.14-.78-1.57-.44-.26.8,1.52.48-1.34,1.24.52.7c-.1.6.39.52.39.52l2.79.53.1-5,2.05-.1L29.05,30l.82,0c.37,0,.44-.23.44-.23A.5.5,0,0,0,29.8,29Zm-4.07,6.39L24.27,35l1.52-1.32Zm2.18-4.91-.86,0,0-.65h.86ZM28,29h-1l.12-.75h1Z"/><polygon class="cls-6" points="8.19 22.46 4.7 28.44 5.92 28.88 8.95 22.64 8.19 22.46"/><polygon class="cls-6" points="7.32 25.35 7.23 35.49 8.27 35.61 7.79 24.5 7.32 25.35"/><path class="cls-6" d="M9.67,26.05l1.83.51L10,28.87l.42.7,1.65,0-1,2.39-1.51-.58-.38.8,1.62.73-.71,1.2.84.65.7-1.51L16.28,35A4.81,4.81,0,0,0,18,34.75s.56-.35-2.12-.87L12,32.3l1.28-3.1s.69-.58-2-.46l-.15,0,1.46-2.43c-.1.05.26-.24-2.24-1l-.3-.07Z"/><path class="cls-6" d="M17.53,26.12l.18-1.22-2-.13.2-1.47-1.15-.07-.08,1,0,.44-1.78-.11-.05.81,1.79.06,0,.64L13.07,26l0,.79,1.49.07,0,.78-1.17-.06v.91l1.11.05,0,.9-.67-.13-.17,1,.87.21-.07.78-1.28-.2,0,.84,1.31.18,0,.77,1.06.09.11-.94,1.75.16v-.77l-1.76-.15.06-.69.76.12.2-.91-.92-.16,0-1,1.56.07L17.39,27h1.26v-.82Zm-1.05,1.64h-.8l.07-.78h.79Zm.22-1.61-1-.07.08-.67.93,0Z"/><polygon class="cls-7" points="38.81 22.6 34.55 24.55 34.98 31.2 36.25 30.91 35.87 34.75 34.57 34.75 34.57 35.64 37.02 35.48 37.23 30.91 42.65 30.74 42.64 24.23 38.96 24.38 39.38 24.99 41.95 25.39 41.4 27 39.23 27.46 39.22 28.15 41.87 28.08 41.52 29.75 35.65 30.08 35.65 28.13 38.25 28.09 38.06 27.36 35.7 26.78 35.26 24.89 37.66 24.13 38.81 22.6"/><polygon class="cls-7" points="40.15 31.8 41.06 32.18 41.19 34.69 43.06 34.55 43.19 35.74 40.45 35.64 40.15 31.8"/><path class="cls-8" d="M56.66,26.89l-3.42,0,1-2.48,1.71,0,0-.94-4,0L51.09,21,50,21.2l.91,2.21-3.75,0c-.48,0,0,1,0,1l2.28-.05.4,2.54L46.42,27l.28.8,9.46,0c1,0,1-.2,1-.2A.56.56,0,0,0,56.66,26.89Zm-5.77,0-.27-2.52H53.2l-.93,2.52Z"/><path class="cls-8" d="M51.68,34.59l1.44.14.25-1.09-1.61-.15.08-1,3,.22.88-3.94-7.88-.29-.45,3.68,3.28.25-.06,1-1.26-.12c-1-.22-.22.91-.22.91l1.51.12L50.37,36,46.74,36c-.16.24.21,1,.21,1a45.83,45.83,0,0,1,7.93.15l.13-.89-3.59-.1Zm.41-4.8,2.18.08-.17.64L52,30.29ZM52,31l2,.19,0,.28-2-.12Zm-1.26.24-2-.1,0-.52,2,.19Zm.1-1-2-.19,0-.38,2,.08Z"/><rect class="cls-9" x="45.93" y="20.19" width="11.24" height="17.86"/></svg>