<?xml version="1.0" encoding="utf-8"?>
<!-- Generator: Adobe Illustrator 25.0.0, SVG Export Plug-In . SVG Version: 6.00 Build 0)  -->
<svg version="1.1" id="圖層_1" xmlns="http://www.w3.org/2000/svg" xmlns:xlink="http://www.w3.org/1999/xlink" x="0px" y="0px" viewBox="0 0 736.8 271.13" style="enable-background:new 0 0 736.8 271.13;" xml:space="preserve">
<style type="text/css">
	.st0{clip-path:url(#SVGID_2_);}
</style>
<g>
	<defs>
		<rect id="SVGID_1_" x="48.13" y="64.72" width="641.04" height="150.11"/>
	</defs>
	<clipPath id="SVGID_2_">
		<use xlink:href="#SVGID_1_"  style="overflow:visible;"/>
	</clipPath>
	<path class="st0" d="M65.8,131.63l0.86-0.69c0,0,12-8.07,47.18-37.59l0.36-0.34l0.85-0.67l0.33-0.34l1.9,2.21l8.06,10.15
		c-34.65,27.63-41.69,33.12-41.69,33.12v0.17h-0.17c-0.17,0.17-0.34,0.5-0.34,0.85c0,0.36,0.17,0.69,0.34,0.69
		c0,0,8.07,6.86,48.4,36.91l3.08,2.39l-1.02,1.2c-0.18,0.18-0.36,0.18-0.36,0.34l-9.1,10.29c-47.36-36.02-53.86-41.19-53.86-41.19
		h-0.18c-0.17-0.16-0.33-0.16-0.69-0.16c-0.16,0-0.34,0-0.52,0.16h-0.15c-1.04,0.87-2.76,2.07-3.79,3.1l-0.52,0.52
		c-0.36,0.17-0.69,0.69-0.69,1.55v33.28H48.13V93.86h15.95v36.38l0.17,0.53c0.34,0.34,0.34,1.03,0.86,1.03
		C65.45,131.8,65.61,131.8,65.8,131.63 M227.95,148.27c0,6.87-0.7,14.07-5.32,18.69c-2.58,2.58-8.58,6.88-20.06,6.88
		c-7.57,0-13.75-2.4-18.54-7.4c-3.78-3.75-4.98-7.89-4.98-17.48V93.86h-15.96v57.84c0,27.27,21.12,37.05,39.13,37.05
		c26.59,0,41.7-14.06,41.7-38.26V93.86h-0.36h-15.61V148.27z M376.88,93.86h0.52v93.69h-15.96v-65.54c0-0.52-0.52-1.03-1.03-1.03
		c-0.33,0-0.52,0.17-0.69,0.34l-0.34,0.52c-7.39,8.76-25.57,29.86-25.74,30.03l-0.17,0.17c-0.52,0.52-1.03,0.69-1.72,0.69
		c-0.69,0-1.37-0.17-1.89-0.69l-0.17-0.17c-0.17-0.17-17.67-22.15-25.74-30.21l-0.33-0.34c-0.18-0.17-0.36-0.17-0.7-0.17
		c-0.5,0-0.86,0.34-0.86,0.86v0.17v65.37h-16.12V93.86h14.42l0.16,0.18c1.2,1.36,24.37,28.3,30.21,35.16l0.17,0.18
		c0.34,0.17,0.52,0.33,0.86,0.33c0.17,0,0.52-0.16,0.69-0.33c5.68-6.7,29.52-33.99,30.55-35.35v-0.18H376.88z M568.2,135.04v-3.07
		l-0.34-0.69l-0.17-1.04l-0.34-1.03l-0.17-2.39l-0.34-0.7l-0.17-0.52l-0.34-0.85v-0.69l-0.5-1.03v-0.69l-0.18-1.03l-0.17-1.03
		l-0.16-0.52l-0.36-0.86l-0.34-1.55l-0.52-0.69l-0.17-0.53l-1.19-2.88l-0.52-0.69l-1.55-2.92l-1.21-2.75l-1.03-2.76l-0.34-1.19
		l-1.55-2.4l-0.34-0.52l-0.69-1.37l-1.89-1.9l-0.67-1.18l-1.19-1.2l-0.53-1.04l-0.5-0.5l-0.7-0.86l-0.69-0.52l-0.86-0.69l-1.36-1.2
		l-0.69-1.21l-1.2-1.35l-1.36-1.21l-1.73-1.19l-1.03-0.36l-0.85-0.67l-1.04-0.69l-0.52-0.86l-0.69-0.52l-0.69-0.52l-1.72-1.03
		l-0.86-0.52l-1.55-1.2l-3.09-1.39l-2.39-1.88l-1.2-0.52l-1.2-0.7l-0.83-0.5h-2.58l-0.52-0.33l-0.7-0.36l-1.37-0.16l-0.86-0.69
		l-1.37-0.52l-1.2-0.18l-1.37-0.67h-1.02l-4.64-1.2l-1.21-0.34h-1.71l-0.52-0.36l-0.53-0.16h-2.74l-0.67-0.5h-1.89l-1.37-0.53h-2.23
		l-1.03-0.17l-2.23-0.17l-1.19-0.17h-4.31l-1.19,0.17h-2.25l-1.02,0.34h-2.58l-1.19,0.17h-2.06l-0.86,0.17l-1.03,0.18h-1.55
		l-1.55,0.33l-0.52,0.53h-0.17v-1.21l-0.34-0.85l-0.69-0.71l-1.89-0.83l-0.69-0.18l-1.03-0.16h-2.92l-1.71,0.34l-0.33,0.16
		l-1.21,0.53l-2.06,0.52l-2.74,0.67h-2.23l-1.19,0.34l-1.73,0.53l-0.85,0.66l-1.21,0.7l-1.89,0.86l-1.55,0.34l-1.03,0.86l-1.37,0.16
		l-0.69,0.36l-1.89,0.85l-2.74,2.58l-0.69,0.86l-0.69,0.52l-1.03,1.2l-1.53,1.19l-0.69,0.87l-0.7,0.69l-0.85,1.55l-0.69,0.69
		l-0.67,0.86l-1.21,0.86l-0.85,1.03l-0.87,0.85l-0.86,1.53l-0.52,0.71l-0.34,0.5v0.7l-0.17,0.5l-0.69,0.52l-0.34,0.86l-1.03,0.86
		L422,93.86l-0.34,0.85l-0.33,0.7l-0.36,0.85l-1.19,2.25l-0.52,0.69l-0.52,1.72l-1.21,1.55l-0.33,0.69l-0.69,1.89l-0.7,1.55
		l-0.16,3.09l-0.34,1.2l-0.18,0.86v0.69l-0.5,0.67l-0.52,1.37l-0.18,1.37l-0.5,1.03v1.55l-0.17,0.83v1.21l-0.86,3.44v1.89
		l-0.16,0.85l-0.18,2.76l-0.17,0.85v1.9l-0.34,1.2v9.59l0.34,0.86v1.19l0.17,0.87v1.03l0.52,2.22v1.9l0.5,1.72v1.2l0.18,1.03
		l0.17,1.02l0.17,1.21l0.86,2.22l0.34,1.39l0.52,0.83l0.16,1.04l0.34,0.67l0.87,1.89l0.33,0.86l0.34,0.69l0.17,1.03l0.7,0.86
		l0.33,1.2l0.7,1.55l0.85,1.03l0.7,1.55l0.67,0.86l0.69,1.2l0.69,0.85l1.37,2.06l0.86,0.87l0.52,0.86l0.52,0.68l0.69,0.86l1.39,1.55
		l0.67,0.86l0.69,0.86l1.2,1.19l0.69,0.52l0.5,0.52l0.7,0.86l0.85,0.69l1.55,1.55l0.86,0.67l1.37,1.21l1.89,1.55l2.22,1.55l1.2,0.69
		l2.23,1.55l1.37,0.52l0.86,0.69l2.07,1.37l0.52,0.69l0.85,0.16l0.7,0.52l1.7,0.86l1.2,0.53l0.86,0.67l1.88,0.7l0.69,0.5l1.72,0.86
		l0.69,0.52l0.86,0.15l0.5,0.36l0.87,0.17l0.69,0.52l1.7,0.7l1.55,0.67l0.86,0.52l1.2,0.16l0.69,0.37l1.89,0.85h1.39l0.52,0.34
		l1.88,0.86l4.11,1.03l1.39,0.34l0.86,0.17h1.88l1.02,0.52h1.55l1.2,0.34h4.29l1.21,0.17h3.77h2.23l0.86-0.17h1.56l1.19-0.34h4.28
		l3.08-0.69h1.03l1.39-0.52h1.55l0.85-0.17l2.23-0.69h1.89l0.69-0.36l1.03-0.16l1.37-0.52l1.2-0.36l0.33-0.32l0.53-0.2h1.2
		l1.53-0.85l0.69-0.34l1.03-0.16l0.5-0.52l0.87-0.34l1.03-0.52l1.02-0.88l1.03-0.49l1.39-0.86l1.03-0.52l0.67-0.52l1.2-0.34
		l0.52-0.5l1.03-0.86l2.23-2.06l0.86-0.7l0.87-0.67l1.19-1.03l0.69-0.69l1.19-1.2l1.2-0.86l0.53-0.86l2.56-2.4l0.69-0.86l1.03-1.2
		l0.68-0.86l0.71-0.87l0.33-0.67l0.69-0.67l0.67-0.86l0.87-1.04l0.5-1.18l1.03-0.87l0.69-1.19l1.03-1.4l0.69-0.85l0.17-0.5
		l0.34-0.52l0.86-1.37l0.69-0.87l0.36-0.67l0.85-1.55l0.18-1.03l0.16-0.52l0.36-0.34l0.33-0.86l0.34-0.69l0.52-1.21l0.52-0.52
		l1.03-2.74l0.36-0.87l0.5-2.22l0.34-1.88l0.69-4.11l0.17-1.37l0.5-1.2v-0.69l0.18-0.86v-2.42l0.34-1.19v-8.76l-0.34-1.19l0.34-1.04
		v-2.22L568.2,135.04z M557.89,147.75l-0.17,1.03l-0.17,1.03v2.58l-0.52,1.03l-0.34,2.23l-0.52,1.35l-0.17,1.4l-0.34,1.19
		l-0.17,0.69l-0.34,0.69l-0.16,1.03l-0.69,1.19l-0.5,0.7l-0.53,1.36l-0.87,1.7l-0.15,1.03l-0.71,0.87l-1.02,1.19l-0.86,1.39
		l-0.52,0.69l-0.69,1.37l-1.2,1.37l-1.36,1.72l-1.53,2.23l-0.7,0.85l-1.2,1.37l-0.67,0.87l-0.52,0.68l-0.87,1.02l-1.2,1.04
		l-0.69,0.86l-0.86,0.34l-3.09,3.25l-1.37,0.85l-1.2,1.21l-1.69,1.72l-0.71,0.34l-1.02,1.03l-2.56,1.55l-0.7,0.52l-0.5,0.5
		l-0.85,0.36l-0.7,0.52l-1.72,0.86l-1.89,0.85l-0.34,0.36l-1.37,0.16l-0.86,0.36l-1.89,0.67l-1.7,0.69l-1.21,0.34l-0.85,0.18h-2.25
		l-1.03,0.52l-1.02,0.16l-1.9,0.34l-1.02,0.18l-1.69,0.17l-1.04,0.16l-2.23,0.18l-1.72,0.34h-2.23h-4.98l-1.2-0.34h-2.23l-1.03-0.18
		l-0.86-0.16l-1.72-0.36l-1.18-0.16l-2.4-0.69l-1.2-0.36l-0.86-0.34l-1.39-0.5l-0.67-0.34l-3.42-1.2l-0.87-0.34l-0.67-0.36
		l-1.73-0.52l-0.69-0.52l-0.86-0.33l-1.72-0.86l-3.26-1.55l-1.03-0.69l-4.11-2.06l-2.56-1.55l-2.06-1.39l-0.85-0.33l-0.36-0.34
		l-0.86-0.36l-1.72-1.35l-1.03-0.53l-2.4-1.72l-1.72-1.2l-0.69-0.5l-1.7-1.37l-1.53-1.21l-1.91-1.86l-0.34-0.7l-1.36-1.36
		l-0.52-0.69l-0.69-0.86l-1.72-2.06l-0.5-1.03l-0.7-0.87l-0.66-0.67l-0.7-0.87l-0.52-1.03l-0.85-1.71l-0.7-1.39l-0.52-0.5
		l-0.17-1.02l-0.52-0.86l-0.34-0.86l-0.34-0.53l-0.17-1.03l-0.34-0.67l-0.34-0.34l-0.52-1.55l-1.2-3.77l-0.52-1.37v-0.69l-0.52-0.69
		l-0.17-1.2l-0.17-1.55l-0.17-0.86v-0.69l-0.52-1.21v-4.1l-0.17-0.87v-2.74l-0.34-0.86l0.34-0.87v-2.21l0.17-1.03v-1.37l0.34-1.03
		v-1.55l0.52-2.4v-1.2l0.52-2.23v-0.86l0.17-1.55l0.52-0.69l0.34-1.89l0.69-3.08l0.34-1.2l0.69-2.06l0.17-0.85l0.87-1.72l0.52-1.9
		l0.52-0.67v-0.69l0.52-0.7l1.88-3.77l0.52-1.03l0.52-1.03l1.03-1.56l0.5-1.03l0.69-0.83l1.2-1.9l0.86-1.36l1.03-1.2l1.21-1.55
		l0.83-1.03l1.03-1.19l1.03-1.03l0.7-0.87l1.02-0.85l0.69-0.52l0.86-0.86l1.55-1.2l2.06-1.55l0.86-0.52l2.58-1.2l1.55-0.7l0.69-0.52
		l3.59-1.19l2.75-0.87l0.52-0.16l1.36-0.17l3.09-0.7l1.72-0.67h0.17v0.67v1.55l0.34,0.52l1.2,1.03l1.89,0.7h3.09l1.55-0.34
		l0.69-0.36l2.06-0.33l0.67-0.34l1.39-0.17l1.53-0.52h2.75l1.2-0.18h1.88l1.2,0.18h1.21l0.52-0.18l1.19,0.18h1.9l0.52-0.18
		l1.19,0.52h2.06l0.86,0.52h1.72l1.37,0.52h1.21l1.53,0.36l0.33,0.34h1.55l1.2,0.34l0.52,0.34l2.91,0.52l0.52,0.52l1.55,0.34
		l0.87,0.34l0.85,0.34l1.37,0.52l1.37,0.17l1.2,0.69l1.72,0.5l1.55,1.03l1.2,0.52l0.86,0.36l0.67,0.52l2.06,0.86l1.55,1.03l1.2,0.68
		l1.02,0.86l0.86,0.34l1.04,0.86l1.7,1.02l1.37,1.39l1.2,0.86l0.86,0.66l0.52,0.36l0.34,0.67l1.03,0.52l5.15,5.34l0.86,1.37
		l1.37,1.71l0.52,0.52l0.34,0.87l0.69,1.03l0.67,1.37l0.86,1.36l0.69,1.39l0.52,1.37l1.36,2.72l0.53,1.04l0.33,1.2l0.69,0.86
		l0.36,1.2l1.02,1.53l0.69,1.72l0.17,0.86l0.52,1.36v1.03l0.52,1.21v1.36l0.69,2.42l0.17,1.03l0.86,4.11v10.12L557.89,147.75z
		 M455.11,90.44l-1.71-1.03h-2.06l-0.86,0.52l-1.2,1.37l-1.55,2.39l-0.69,1.9l-0.86,1.69l-0.86,1.03l-0.52,1.56v3.09l0.17,1.03
		l0.17,1.03v0.52l1.03,1.37l1.55,0.33l1.39-0.33H451l0.86-0.34l0.87-0.17l1.36-0.86l1.36-1.39l0.86-1.02l0.52-2.23l0.69-1.2
		l0.34-1.39l0.18-4.62l-0.53-1.71l-1.2-1.2L455.11,90.44z M514.31,187.55l-3.26-1.03h-1.37l-1.7-0.18l-1.2-0.33l-1.56-0.34
		l-1.02-0.16l-4.47-0.86l-1.02-0.17l-0.86-0.17h-2.4l-1.2-0.33h-3.43l-3.44-0.7h-2.75l-0.86-0.17l-1.53-0.17l-0.86,0.34h-2.23
		l-1.53,0.33l-0.69,0.18l-0.52,0.52l-0.34,0.69v2.39v0.87l0.16,1.02l0.18,0.67l0.67,0.52l0.69,1.21l1.21,0.69l1.56,0.69l1.02,0.17
		h1.02l1.03,0.17l0.85,0.34h2.23l1.03,0.17h3.09h0.86h0.87h2.56l2.23,0.52h4.12l1.55-0.69l1.36,0.17l0.69,0.34l1.36,0.34l1.2,0.17
		l0.86,0.34h0.69l0.86,0.17l1.55,0.17h2.06l0.69-0.17l0.69-0.69l0.34-0.69l0.69-1.72v-2.25l-0.17-1.03l-0.52-0.85L514.31,187.55z
		 M534.4,106.06l-1.03-0.17l-0.36-0.34l-0.52-0.36h-1.88l-0.69,0.36l-1.37,0.86l-0.69,0.85l-1.03,1.03l-0.34,0.7l-0.5,1.37
		l-0.18,0.52l-0.34,0.86l-0.33,1.55l-0.18,1.02l-0.16,1.02v2.91l0.16,1.56l0.34,1.37l0.17,0.52l0.86,0.34l1.2,0.17l0.85,0.52h2.25
		l1.21-0.34l1.35-1.37l0.7-0.86l0.85-0.5l1.03-1.04l1.2-1.37l0.86-2.58l0.17-3.24l-1.37-3.26l-1.2-1.2L534.4,106.06z M689.17,93.86
		v93.69h-13.39c-44.62-51.3-55.77-64.34-55.77-64.34l-0.18-0.17c-0.67-0.52-0.86-0.86-0.86-0.86c-0.16-0.17-0.5-0.52-0.83-0.34
		c0,0-0.7,0-0.7,1.03v0.69v64h-15.27V93.86h12.38h0.15l56.96,65.04l0.18,0.16c0.17,0.36,0.33,0.53,0.5,0.7
		c0.18,0.17,0.52,0.52,0.87,0.33c0,0,0.68,0,0.68-1.03v-1.36V93.86H689.17z"/>
</g>
</svg>
